<!-- icon666.com - MILLIONS OF FREE VECTOR ICONS --><svg id="Capa_1" enable-background="new 0 0 511.989 511.989" viewBox="0 0 511.989 511.989" xmlns="http://www.w3.org/2000/svg"><g><path d="m510.633 338.195c1.767-3.053 1.813-6.823.106-9.91-.002-.003-.003-.006-.005-.008l-54.749-101.057c-1.744-3.218-5.106-5.227-8.767-5.236l-114.36-.301c-.006 0-.012 0-.018 0-3.341-.053-6.49 1.583-8.392 4.33-.242.35-.396.573-.397.574l-58.583 98.925c-1.79 3.023-1.862 6.765-.19 9.855l46.924 86.707h-71.306v-101.968s0-.001 0-.002c-.04-3.478-1.848-6.706-4.804-8.539-.116-.072-.198-.122-.237-.144l-98.398-58.607c-3.153-1.878-7.081-1.878-10.234 0l-98.399 58.606c-.032.018-.094.055-.181.107-3.017 1.802-4.869 5.062-4.859 8.576v.002 101.968h-13.784c-5.523 0-10 4.477-10 10v14.271c0 31.051 25.172 56.223 56.223 56.223h387.096c31.051 0 56.223-25.172 56.223-56.223v-14.271c0-5.523-4.477-10-10-10h-28.581l49.643-83.83c.001 0 .011-.017.029-.048zm-69.404-96.227 43.942 81.11-91.646-.382-44.026-80.969zm-308.89 31.076 78.989 47.046-78.989 46.882-78.989-46.882zm-88.556 64.626 83.452 49.532c1.573.934 3.338 1.4 5.104 1.4s3.531-.467 5.104-1.4l83.452-49.532v84.404h-177.112zm435.759 108.675c0 19.974-16.249 36.223-36.223 36.223h-387.096c-19.973 0-36.223-16.25-36.223-36.223v-4.271h308.804c.063.001.126.002.188.002s.124-.001.186-.002h150.364zm-144.6-24.271-49.38-91.245 46.722-78.895 46.497 85.514c1.743 3.206 5.095 5.208 8.743 5.223l96.975.405-46.782 78.998z"></path><path d="m117.221 201.867 98.556 58.496c1.573.934 3.338 1.401 5.104 1.401 1.765 0 3.531-.467 5.104-1.4l98.556-58.496c3.036-1.802 4.896-5.07 4.896-8.6 0 0 0-115.153 0-115.157 0-.001 0-.002 0-.004-.002-3.455-1.797-6.673-4.738-8.487-.15-.093-.255-.156-.3-.182l-98.402-58.609c-3.153-1.877-7.081-1.877-10.234 0l-98.398 58.607-.013.007c-3.11 1.783-5.028 5.093-5.028 8.678v115.146c.001 3.531 1.862 6.799 4.897 8.6zm103.66 38.268-88.556-52.561v-91.888l83.452 49.531c1.573.934 3.338 1.401 5.104 1.401 1.765 0 3.531-.467 5.104-1.4l83.453-49.532v91.889zm0-209.075 78.989 47.046-78.989 46.882-78.989-46.882z"></path></g></svg>