<!-- icon666.com - MILLIONS OF FREE VECTOR ICONS --><svg version="1.1" id="Capa_1" xmlns="http://www.w3.org/2000/svg" xmlns:xlink="http://www.w3.org/1999/xlink" x="0px" y="0px" viewBox="0 0 479.286 479.286" style="enable-background:new 0 0 479.286 479.286;" xml:space="preserve"><g><g><path d="M463.857,10.506c-8.678-6.821-19.735-9.862-30.68-8.44l-31.84,4.248c-50.064,6.581-96.809,28.683-133.664,63.2 l-35.312,32.96c-14.335,13.426-25.586,29.803-32.976,48c-6.982,16.402-18.045,30.745-32.136,41.664 c-6.422,5.177-13.881,8.915-21.872,10.96c-27.789,7.109-53.155,21.56-73.44,41.84l-25.112,25.088 C16.749,299.939-0.112,340.64,0.001,383.058v15.344c0.022,43.725,35.475,79.16,79.2,79.16c2.011,0,4.024-0.077,6.04-0.232 l23.544-1.816c30.185-2.379,58.712-14.767,81.056-35.2l22.304-20.44c21.76-20.026,36.403-46.596,41.712-75.688 c2.929-14.702,10.921-27.911,22.584-37.328l3.528-2.936c11.184-8.97,24.975-14.073,39.304-14.544 c24.626-1.386,48.118-10.806,66.88-26.816l38.648-33.144c24.891-21.299,39.214-52.424,39.2-85.184v-38.52 c0.02-15.52,3.721-30.813,10.8-44.624C483.659,43.774,479.081,22.613,463.857,10.506z M460.577,53.762v0.024 c-8.249,16.068-12.56,33.866-12.576,51.928v38.52c0.011,28.089-12.265,54.778-33.6,73.048l-38.664,33.136 c-16.081,13.736-36.221,21.824-57.336,23.024c-17.769,0.641-34.849,7.034-48.672,18.216l-3.528,2.936 c-14.552,11.82-24.49,28.375-28.08,46.776c-4.689,25.653-17.608,49.08-36.8,66.736l-22.304,20.448 c-19.704,18.005-44.854,28.918-71.464,31.008l-23.544,1.808c-34.803,2.655-65.169-23.406-67.825-58.209 c-0.121-1.584-0.182-3.171-0.183-4.759v-15.344c-0.099-38.172,15.073-74.799,42.136-101.72l25.112-25.112 c18.255-18.251,41.081-31.26,66.088-37.664c10.198-2.601,19.717-7.365,27.912-13.968c16.231-12.636,28.957-29.215,36.968-48.16 c6.52-16.025,16.435-30.447,29.064-42.272l35.312-32.952c34.425-32.246,78.09-52.893,124.856-59.04l31.84-4.24 c13.551-1.803,25.997,7.721,27.8,21.272C463.753,44.198,462.877,49.278,460.577,53.762z"></path></g></g><g><g><polygon points="187.513,280.794 163.025,301.514 173.473,313.642 197.841,293.01 "></polygon></g></g><g><g><path d="M391.385,92.522l-7.024,8.984c-4.171,5.333-8.437,10.597-12.8,15.792l12.264,10.28 c4.475-5.328,8.856-10.733,13.144-16.216l7.024-8.984L391.385,92.522z"></path></g></g><g><g><path d="M316.865,174.074c-7.816,7.072-15.88,13.976-23.96,20.528l10.072,12.432c8.304-6.728,16.592-13.832,24.624-21.096 L316.865,174.074z"></path></g></g><g><g><rect x="409.279" y="64.038" transform="matrix(0.6159 -0.7878 0.7878 0.6159 103.6383 356.6408)" width="16.56" height="16"></rect></g></g><g><g><path d="M356.001,135.09c-7.04,7.712-14.4,15.36-21.912,22.736l11.2,11.408c7.712-7.576,15.288-15.44,22.512-23.36L356.001,135.09 z"></path></g></g><g><g><rect x="250.562" y="217.586" transform="matrix(0.7861 -0.6181 0.6181 0.7861 -82.4177 213.0242)" width="32" height="16"></rect></g></g><g><g><rect x="207.233" y="253.09" transform="matrix(0.7639 -0.6453 0.6453 0.7639 -115.7871 205.707)" width="31.992" height="16"></rect></g></g><g><g><path d="M105.545,358.698c-4.128,4.763-8.176,9.597-12.144,14.504l-8.4,10.4l12.432,10.064l8.408-10.4 c3.845-4.768,7.773-9.461,11.784-14.08L105.545,358.698z"></path></g></g><g><g><rect x="50.096" y="411.748" transform="matrix(0.6289 -0.7775 0.7775 0.6289 -301.8306 207.1761)" width="32" height="16"></rect></g></g><g><g><path d="M144.905,317.762c-7.88,7.4-15.616,15.112-23.008,22.912l11.616,11c7.168-7.584,14.688-15.064,22.344-22.248 L144.905,317.762z"></path></g></g><g><g><path d="M414.889,132.01c-2.311,9.852-5.641,19.437-9.936,28.6l14.488,6.792c4.768-10.167,8.465-20.803,11.032-31.736 L414.889,132.01z"></path></g></g><g><g><path d="M356.721,218.018c-4.92,3.453-10.044,6.606-15.344,9.44l-11.312,4.8l6.232,14.736l11.92-5.08 c6.12-3.218,12.028-6.822,17.688-10.792L356.721,218.018z"></path></g></g><g><g><path d="M393.705,180.37c-5.664,8.382-12.184,16.152-19.456,23.184l11.12,11.512c8.074-7.806,15.313-16.431,21.6-25.736 L393.705,180.37z"></path></g></g><g><g><path d="M256.121,263.538c-9.334,4.392-16.872,11.864-21.344,21.16c-0.968,2.016-1.96,4-2.96,6l14.28,7.2 c1.067-2.08,2.099-4.173,3.096-6.28c2.875-5.975,7.72-10.777,13.72-13.6L256.121,263.538z"></path></g></g><g><g><path d="M188.857,355.762c-6.656,7.936-13.776,15.672-21.168,22.984l11.256,11.376c7.736-7.664,15.2-15.768,22.176-24.08 L188.857,355.762z"></path></g></g><g><g><path d="M150.545,394.666c-7.92,6.752-16.192,13.248-24.664,19.288l9.32,13.032c8.864-6.328,17.528-13.12,25.744-20.2 L150.545,394.666z"></path></g></g><g><g><path d="M106.329,426.93c-8.832,5.384-18.04,10.456-27.368,15.064l7.08,14.336c9.768-4.8,19.408-10.128,28.656-15.8 L106.329,426.93z"></path></g></g><g><g><path d="M220.521,311.234c-5.32,8.928-11.096,17.68-17.208,26.08l12.928,9.416c6.4-8.8,12.472-17.984,18.032-27.312 L220.521,311.234z"></path></g></g><g><g><rect x="280.32" y="247.208" transform="matrix(0.921 -0.3897 0.3897 0.921 -76.0244 135.6406)" width="32" height="16"></rect></g></g><g><g><rect x="423.347" y="98.181" transform="matrix(0.1514 -0.9885 0.9885 0.1514 257.7495 512.5941)" width="8.136" height="16"></rect></g></g><g><g><rect x="285.905" y="101.943" transform="matrix(0.7956 -0.6058 0.6058 0.7956 -4.9027 205.3525)" width="32" height="16"></rect></g></g><g><g><path d="M410.833,40.25c-11.167,1.659-22.109,4.581-32.616,8.712l5.856,14.888c9.373-3.684,19.135-6.292,29.096-7.776 L410.833,40.25z"></path></g></g><g><g><path d="M148.849,242.41c-9.151,6.189-17.855,13.014-26.048,20.424l10.728,11.856c7.64-6.897,15.753-13.251,24.28-19.016 L148.849,242.41z"></path></g></g><g><g><path d="M197.953,215.362c-3.722,2.408-7.612,4.547-11.64,6.4l-4.296,1.968c-4.016,1.856-7.973,3.819-11.872,5.888l7.504,14.12 c3.627-1.925,7.312-3.747,11.056-5.464l4.312-1.984c4.73-2.186,9.297-4.71,13.664-7.552L197.953,215.362z"></path></g></g><g><g><path d="M41.273,374.722c-3.025,8.118-5.597,16.397-7.704,24.8l15.528,3.872c1.966-7.838,4.37-15.559,7.2-23.128L41.273,374.722z"></path></g></g><g><g><path d="M265.097,129.002c-8.188,7.763-15.477,16.423-21.728,25.816l13.328,8.856c5.579-8.385,12.087-16.114,19.4-23.04 L265.097,129.002z"></path></g></g><g><g><path d="M355.513,60.162c-4.597,2.78-9.041,5.805-13.312,9.064l-13.328,10.136l9.696,12.72l13.336-10.168 c3.81-2.907,7.776-5.604,11.88-8.08L355.513,60.162z"></path></g></g><g><g><path d="M105.369,280.146l-13.152,13.6c-3.125,3.248-6.155,6.576-9.088,9.984l12.128,10.4c2.736-3.147,5.563-6.237,8.48-9.272 l13.152-13.6L105.369,280.146z"></path></g></g><g><g><path d="M67.961,323.418c-6.267,9.098-11.881,18.628-16.8,28.52l14.32,7.12c4.587-9.211,9.819-18.086,15.656-26.56L67.961,323.418 z"></path></g></g><g><g><path d="M231.241,176.738l-0.912,1.896c-4.004,8.264-9.231,15.877-15.504,22.584l11.68,10.944 c7.376-7.885,13.517-16.839,18.216-26.56l0.92-1.896L231.241,176.738z"></path></g></g></svg>