<!-- icon666.com - MILLIONS OF FREE VECTOR ICONS --><svg id="Layer_1" enable-background="new 0 0 512 512" viewBox="0 0 512 512" xmlns="http://www.w3.org/2000/svg"><g><path d="m437.02 74.98c-48.353-48.351-112.64-74.98-181.02-74.98s-132.667 26.629-181.02 74.98c-48.351 48.353-74.98 112.64-74.98 181.02s26.629 132.667 74.98 181.02c48.353 48.351 112.64 74.98 181.02 74.98s132.667-26.629 181.02-74.98c48.351-48.353 74.98-112.64 74.98-181.02s-26.629-132.667-74.98-181.02zm-351.432 10.607c45.518-45.519 106.039-70.587 170.412-70.587 61.866 0 120.166 23.165 165.019 65.374l-172.039 172.039v-42.628h14.414c14.58 0 26.442-11.862 26.442-26.442v-22.555c0-14.58-11.862-26.442-26.442-26.442h-10.028v-42.552c0-19.311-15.71-35.021-35.021-35.021s-35.021 15.71-35.021 35.021v42.552h-10.029c-14.58 0-26.441 11.862-26.441 26.442v22.555c0 14.58 11.861 26.442 26.441 26.442h14.95v34.88c0 9.697 15 9.697 15 0v-34.88h30.734v113.083h-30.734v-38.307c0-9.697-15-9.697-15 0v28.586l-107.871 107.872c-42.209-44.853-65.374-103.152-65.374-165.019 0-64.374 25.068-124.894 70.588-170.413zm87.708 109.198c-6.309 0-11.441-5.133-11.441-11.442v-22.555c0-6.309 5.133-11.442 11.441-11.442h90.099c6.31 0 11.442 5.133 11.442 11.442v22.555c0 6.309-5.133 11.442-11.442 11.442zm65.07-60.439h-40.041v-42.552c0-11.04 8.981-20.021 20.021-20.021s20.021 8.981 20.021 20.021v42.552zm-4.386 261.441c0 4.609-.38 9.198-1.128 13.72-1.646 9.948-5.07 19.568-10.137 28.351-1.233 2.138-3.279 2.368-4.102 2.368s-2.868-.23-4.102-2.369c-7.37-12.774-11.266-27.322-11.266-42.07v-57.918h30.734v57.918zm192.432 30.626c-45.518 45.519-106.039 70.587-170.412 70.587-61.866 0-120.166-23.165-165.019-65.374l97.265-97.265v61.425c0 2.172.072 4.34.214 6.501.143 2.161.356 4.315.639 6.457.142 1.071.301 2.14.477 3.205.195 1.181.417 2.356.655 3.528 2.122 10.464 5.92 20.569 11.288 29.873 1.338 2.319 3.072 4.287 5.095 5.841.126.097.258.184.386.277.215.157.427.317.648.465 3.172 2.122 6.951 3.29 10.966 3.29 6.692 0 12.727-3.244 16.393-8.743.244-.367.478-.743.701-1.13 8.684-15.051 13.273-32.19 13.273-49.566v-65.418-56.742l182.645-182.643c42.209 44.853 65.374 103.152 65.374 165.019 0 64.374-25.068 124.894-70.588 170.413z"></path><path d="m340.132 288.163c0-18.626-21.521-41.451-23.976-43.993-3.597-3.053-7.194-3.053-10.791 0-2.454 2.542-23.977 25.366-23.977 43.993 0 16.111 13.176 29.219 29.372 29.219s29.372-13.108 29.372-29.219zm-29.371 14.219c-7.925 0-14.372-6.379-14.372-14.219 0-7.461 7.47-19.004 14.377-27.46 6.905 8.442 14.366 19.972 14.366 27.46 0 7.84-6.447 14.219-14.371 14.219z"></path><path d="m382.369 380.218c-3.935-1.283-8.171.872-9.452 4.811-2.937 9.023-11.342 15.086-20.917 15.086-12.118 0-21.977-9.767-21.977-21.771 0-12.409 12.985-30.434 21.957-41.021 3.349 3.955 7.772 9.527 11.805 15.724 5.288 8.129 17.861-.054 12.572-8.182-8.586-13.194-18.54-23.561-18.96-23.996-2.949-3.056-7.842-3.056-10.793-.002-.316.328-7.846 8.157-15.452 18.839-10.702 15.03-16.129 28.03-16.129 38.638 0 20.275 16.588 36.771 36.977 36.771 16.09 0 30.229-10.226 35.181-25.445 1.282-3.938-.872-8.17-4.812-9.452z"></path></g></svg>