<!-- icon666.com - MILLIONS OF FREE VECTOR ICONS --><svg id="Capa_1" enable-background="new 0 0 512.002 512.002" viewBox="0 0 512.002 512.002" xmlns="http://www.w3.org/2000/svg"><g><path d="m256.001 512.002c68.381 0 132.668-26.629 181.021-74.981 48.352-48.352 74.98-112.64 74.98-181.02 0-141.493-114.497-256.001-256.001-256.001-141.492 0-256.001 114.497-256.001 256.001 0 141.492 114.497 256.001 256.001 256.001zm0-497.002c132.889 0 241.001 108.113 241.001 241.001s-108.112 241.001-241.001 241.001-241.001-108.113-241.001-241.001 108.112-241.001 241.001-241.001z"></path><path d="m374.626 363.655.005.005 33.841 33.841c6.94 6.939 18.379 6.292 24.458-1.363 71.251-89.737 63.798-218.591-17.337-299.727-81.136-81.136-209.988-88.59-299.726-17.339-7.674 6.092-8.281 17.54-1.365 24.458 7.204 7.205 252.98 252.981 260.124 260.125zm-101.382-122.596c5.108-2.462 9.681-6.011 13.356-10.445 4.053 4.882 9.272 8.758 15.091 11.238 7.683 26.874 19.699 41.916 32.675 60.33zm-148.05-150.239c38.482-30.555 84.655-45.6 130.693-45.6 54.173 0 108.152 20.85 149.098 61.796 75.743 75.743 82.706 196.028 16.196 279.793-.511.643-1.499.688-2.103.084l-32.512-32.512c-1.618-5.058-4.017-9.867-7.155-14.321-56.816-80.624-68.298-87.164-68.298-152.52 0-4.142-3.357-7.5-7.5-7.5s-7.5 3.358-7.5 7.5c0 15.16-.235 21.409 1.112 32.342-2.566-3.307-6.42-5.207-10.626-5.207-4.289 0-8.22 1.966-10.784 5.395-3.527 4.715-8.61 7.988-14.271 9.289l-45.658-45.658v-50.088c0-7.256-5.903-13.16-13.16-13.16-7.431 0-13.477-6.046-13.477-13.477s6.046-13.476 13.477-13.476h106.548c7.431 0 13.476 6.045 13.476 13.477s-6.046 13.477-13.477 13.477c-7.257 0-13.16 5.904-13.16 13.16v18.927c0 4.142 3.357 7.5 7.5 7.5s7.5-3.358 7.5-7.5v-17.146c14.848-.952 26.637-13.334 26.637-28.418 0-15.702-12.774-28.476-28.476-28.476h-106.546c-15.702 0-28.477 12.774-28.477 28.477 0 15.084 11.789 27.466 26.637 28.418v33.307l-75.778-75.778c-.604-.603-.561-1.593.084-2.105z"></path><path d="m256.119 481.783c49.312 0 98.797-16.125 140.018-48.854 7.675-6.094 8.278-17.544 1.363-24.457-12.955-12.955-281.122-281.123-293.969-293.97-6.944-6.942-18.389-6.279-24.458 1.364-71.251 89.736-63.798 218.591 17.337 299.726 43.866 43.866 101.669 66.191 159.709 66.191zm-7.17-200.648c17.202 17.201 13.588 13.587 22.944 22.944-2.563 6.789-9.069 11.423-16.604 11.423-9.794 0-17.762-7.968-17.762-17.762 0-7.537 4.634-14.044 11.422-16.605zm-158.128-155.942c.516-.65 1.508-.68 2.103-.085l104.891 104.892c-3.72 16.894-10.65 32.618-20.637 46.79l-44.589 63.271c-24.291 34.468.393 82.107 42.585 82.107h63.326c4.143 0 7.5-3.358 7.5-7.5s-3.357-7.5-7.5-7.5h-63.326c-30.135 0-47.663-33.862-30.323-58.466l44.589-63.271c9.326-13.235 16.267-27.682 20.715-43.091l27.65 27.65c-9.292 5.824-15.277 16.124-15.277 27.749 0 18.065 14.697 32.762 32.762 32.762 11.625 0 21.924-5.986 27.749-15.278l80.572 80.572c-6.905 7.292-16.384 11.373-26.782 11.373h-63.327c-4.143 0-7.5 3.358-7.5 7.5s3.357 7.5 7.5 7.5h63.327c14.486 0 27.697-5.664 37.386-15.769l12.679 12.679c.603.603.561 1.591-.085 2.104-83.766 66.508-204.051 59.544-279.791-16.197-75.744-75.743-82.706-196.027-16.197-279.792z"></path><path d="m206.833 333.789c-13.877 0-25.166 11.29-25.166 25.167 0 13.876 11.289 25.166 25.166 25.166s25.167-11.29 25.167-25.166c0-13.877-11.29-25.167-25.167-25.167zm0 35.333c-5.605 0-10.166-4.561-10.166-10.166 0-5.606 4.561-10.167 10.166-10.167 5.606 0 10.167 4.561 10.167 10.167 0 5.605-4.561 10.166-10.167 10.166z"></path><path d="m279.056 359.606h1.166c4.143 0 7.5-3.358 7.5-7.5s-3.357-7.5-7.5-7.5h-1.166c-4.143 0-7.5 3.358-7.5 7.5s3.357 7.5 7.5 7.5z"></path></g></svg>